# xmcd
#
# Track frame offsets:
#	150
#	11031
#	34216
#	52472
#	70788
#	93813
#	114399
#	136812
#	157347
#	175905
#	188979
#	201325
#
# Disc length: 2861 seconds
#
# Revision: 0
# Processed by: cddbd v1.5.2PL0 Copyright (c) Steve Scherf et al.
# Submitted via: audiograbber 1.83.01
#
DISCID=ae0b2b0c
DTITLE=Garth Brooks - The Ultimate Collection - RPMs
DYEAR=2016
DGENRE=Country
TTITLE0=Against The Grain
TTITLE1=She's Tired Of Boys
TTITLE2=Rollin'
TTITLE3=Addicted To Love
TTITLE4=Cold Like That
TTITLE5=You Move Me
TTITLE6=Ireland
TTITLE7=Don't Cross The River
TTITLE8=I'll Be The Wind
TTITLE9=Doctor My Eyes
TTITLE10=Working For A Living (Duet With Huey Lewis)
TTITLE11=Do What You Gotta Do
EXTD=
EXTT0=
EXTT1=
EXTT2=
EXTT3=
EXTT4=
EXTT5=
EXTT6=
EXTT7=
EXTT8=
EXTT9=
EXTT10=
EXTT11=
PLAYORDER=
